<?xml version="1.0" standalone="no"?>
<!DOCTYPE svg PUBLIC "-//W3C//DTD SVG 20010904//EN"
 "http://www.w3.org/TR/2001/REC-SVG-20010904/DTD/svg10.dtd">
<svg version="1.0" xmlns="http://www.w3.org/2000/svg"
 width="1563.000000pt" height="347.000000pt" viewBox="0 0 1563.000000 347.000000"
 preserveAspectRatio="xMidYMid meet">
<metadata>
Created by potrace 1.16, written by Peter Selinger 2001-2019
</metadata>
<g transform="translate(0.000000,347.000000) scale(0.100000,-0.100000)"
fill="#000000" stroke="none">
<path d="M3711 3298 c-20 -77 -71 -113 -71 -52 0 33 -18 66 -32 58 -6 -4 -8
-28 -4 -65 4 -33 5 -59 3 -59 -2 0 -18 7 -36 16 -47 23 -111 30 -122 13 -18
-28 -10 -195 11 -252 23 -62 45 -85 120 -126 58 -32 48 -42 -15 -15 -20 8 -40
12 -43 9 -13 -12 17 -41 59 -56 l44 -17 0 -81 c1 -61 5 -85 15 -91 22 -14 31
-8 67 38 l32 42 19 -62 c11 -35 22 -85 26 -113 4 -27 15 -72 24 -100 26 -78
22 -272 -11 -470 -15 -88 -34 -218 -43 -290 -8 -71 -22 -161 -30 -200 -8 -38
-21 -114 -29 -167 -14 -98 -34 -161 -35 -107 0 14 -7 49 -15 77 -9 29 -33 133
-55 232 -21 99 -64 257 -95 351 -31 94 -54 173 -52 175 2 2 19 -1 38 -6 46
-13 59 -13 59 4 0 8 -21 22 -47 32 l-47 18 30 12 c45 19 76 57 72 90 -3 26 -8
30 -45 35 -24 3 -45 8 -49 12 -3 3 -1 29 6 58 14 58 8 151 -14 202 -26 63 -76
107 -174 154 -51 25 -100 42 -108 39 -9 -4 -14 -21 -14 -56 0 -57 -8 -62 -32
-20 -19 33 -35 38 -44 15 -7 -17 15 -55 54 -97 l26 -28 -47 0 c-35 0 -49 -4
-54 -17 -7 -18 37 -60 75 -69 23 -6 23 -7 4 -28 -10 -11 -27 -58 -37 -104 -18
-79 -18 -86 -2 -115 27 -51 57 -267 57 -409 0 -71 -3 -128 -6 -128 -3 0 -29
20 -56 45 -28 25 -59 45 -70 45 -20 0 -20 -5 -16 -107 4 -77 10 -119 23 -146
19 -37 19 -37 -3 -57 -12 -12 -22 -25 -22 -29 0 -16 25 -19 43 -6 17 12 57 10
57 -4 -2 -36 -107 -381 -153 -501 -11 -30 -52 -113 -90 -185 -96 -179 -124
-207 -146 -145 -12 37 -7 54 31 98 51 59 28 122 -43 122 -48 0 -76 -23 -90
-73 -16 -59 -4 -141 31 -214 38 -76 79 -113 127 -113 54 0 92 46 138 165 21
55 56 132 76 170 21 39 50 111 65 160 15 50 44 128 64 175 21 47 43 112 50
145 7 33 16 63 20 68 3 4 12 -43 19 -105 15 -137 25 -185 58 -305 l26 -92 -21
-56 c-25 -65 -29 -107 -9 -99 9 3 18 -9 26 -37 17 -57 57 -115 95 -138 46 -28
90 -39 211 -56 61 -8 127 -18 147 -21 30 -5 39 -3 44 10 9 22 -10 65 -47 104
l-30 32 43 0 c56 0 90 10 85 24 -2 6 -16 12 -30 14 l-27 3 20 26 c43 55 14
116 -42 87 -15 -8 -38 -18 -51 -23 -24 -9 -24 -9 -11 27 7 20 13 56 14 79 0
23 7 57 15 75 32 71 185 648 185 699 0 10 4 20 9 23 8 5 36 -165 51 -309 5
-55 17 -90 54 -164 36 -72 43 -92 29 -86 -10 4 -30 10 -45 13 -23 3 -28 1 -28
-17 0 -46 80 -174 129 -206 23 -15 29 -25 25 -42 -5 -18 -1 -22 27 -25 l32 -3
-39 -25 c-60 -39 -56 -54 19 -68 89 -17 121 -15 141 6 16 18 18 18 74 -1 44
-15 76 -18 142 -15 114 6 177 37 224 111 68 107 181 391 251 630 38 128 45
201 20 210 -34 14 -56 -28 -125 -241 -55 -170 -82 -237 -136 -335 -78 -140
-146 -242 -169 -251 -33 -12 -83 -6 -109 15 -28 22 -35 49 -12 49 17 0 76 48
76 61 0 13 -34 11 -48 -3 -16 -16 -15 -9 3 42 22 61 19 133 -6 183 -36 70 -69
86 -70 35 0 -18 -3 -41 -7 -50 -4 -10 -7 65 -8 165 0 104 -6 216 -13 262 -8
44 -15 148 -16 230 -1 83 -5 175 -10 205 -7 53 -7 54 10 32 28 -38 67 -27 84
24 18 51 9 89 -30 125 -33 31 -35 39 -13 80 15 31 40 276 29 288 -3 3 -14 0
-24 -6 -16 -10 -18 -8 -17 20 2 53 -18 43 -44 -24 l-25 -64 -6 90 c-11 164
-90 270 -115 154 l-9 -40 -36 83 c-81 186 -260 553 -282 576 -18 20 -29 23
-62 19 -22 -3 -48 -8 -57 -12 -16 -6 -17 -2 -12 38 8 57 -3 117 -20 117 -8 0
-19 -19 -25 -42z m-143 -151 c27 -25 27 -32 3 -63 -15 -19 -20 -21 -25 -9 -9
25 -36 18 -36 -10 0 -17 17 -42 53 -78 52 -51 115 -143 104 -153 -9 -10 -102
44 -134 78 -17 18 -37 46 -42 61 -15 39 -14 180 1 195 15 15 46 6 76 -21z
m-301 -593 c110 -48 163 -128 163 -243 0 -52 -17 -121 -29 -121 -5 0 -15 46
-22 101 l-13 102 -53 62 c-30 35 -61 66 -69 69 -31 12 -35 -6 -9 -39 28 -38
17 -59 -16 -29 -36 32 -50 124 -20 124 6 0 36 -11 68 -26z m82 -1989 c31 -54
109 -123 163 -144 32 -12 47 1 28 24 -11 13 -7 13 27 1 68 -24 120 -54 142
-82 12 -15 19 -29 17 -31 -2 -2 -53 1 -112 8 -223 24 -304 87 -304 237 0 23 2
42 4 42 2 0 18 -25 35 -55z"/>
<path d="M10545 3187 c-56 -22 -71 -36 -108 -95 -43 -70 -45 -96 -13 -160 14
-26 28 -73 32 -105 l6 -58 -36 22 c-59 35 -68 23 -61 -73 4 -53 14 -99 28
-128 l22 -46 -32 4 c-25 3 -33 0 -33 -12 0 -9 3 -16 8 -16 27 -1 32 -17 17
-54 -23 -54 -17 -100 13 -104 13 -2 30 2 39 10 14 11 15 10 10 -7 -4 -11 -31
-112 -62 -225 -31 -113 -67 -241 -82 -284 l-26 -79 -18 49 c-11 27 -19 55 -19
62 0 19 -31 27 -41 11 -5 -8 -9 -54 -8 -104 l2 -89 -29 -9 c-39 -13 -54 -26
-54 -48 0 -20 15 -25 25 -9 11 18 54 11 65 -11 15 -27 4 -91 -20 -122 -14 -18
-33 -26 -70 -30 -28 -3 -94 -26 -148 -50 -141 -64 -135 -90 24 -106 50 -5 92
-15 100 -23 12 -12 4 -36 -63 -174 -43 -88 -98 -204 -122 -257 -42 -95 -110
-187 -136 -187 -16 0 -56 91 -63 143 -3 24 2 52 13 78 25 55 13 91 -36 103
-49 12 -101 1 -133 -29 -31 -29 -34 -80 -11 -200 24 -125 91 -201 199 -226 51
-11 54 -10 112 22 85 48 148 116 172 186 11 32 45 123 76 203 30 80 65 179 78
220 12 41 34 87 48 103 l26 29 158 -21 c88 -12 181 -27 207 -33 47 -11 48 -12
26 -26 -38 -26 -77 -65 -77 -78 0 -18 63 -34 131 -34 l56 0 7 -48 c7 -55 29
-92 55 -92 21 0 31 35 31 108 l0 46 36 -60 c61 -101 113 -161 210 -241 126
-104 162 -123 238 -123 87 1 130 24 211 114 95 105 131 157 176 253 59 122
179 465 179 509 0 28 -47 61 -68 48 -8 -6 -32 -69 -53 -143 -88 -298 -178
-492 -268 -572 -69 -61 -99 -64 -145 -14 -54 59 -130 266 -152 415 -7 52 -16
112 -19 133 -5 35 -4 36 14 26 27 -17 47 -5 61 35 9 30 9 41 -4 68 -19 37 -16
44 13 29 11 -7 22 -7 25 -2 12 19 -8 41 -46 51 -34 10 -38 14 -32 33 34 102 5
256 -57 313 -25 23 -41 14 -54 -31 l-11 -40 -26 120 c-15 66 -33 153 -41 193
l-13 72 20 -19 c31 -28 66 -43 83 -37 16 7 15 57 -3 101 -7 18 -6 18 20 -3 16
-12 32 -19 37 -16 18 11 8 34 -26 59 l-34 27 31 38 c44 56 34 72 -44 69 -50
-1 -62 1 -59 12 21 84 12 141 -35 209 -46 67 -57 96 -44 121 6 10 18 19 26 19
9 0 14 7 12 18 -5 27 -65 28 -93 2 -27 -25 -25 -26 -55 65 -52 160 -106 216
-211 214 -30 0 -67 -6 -84 -12z m39 -1132 c8 -49 24 -148 35 -220 11 -71 27
-150 35 -174 22 -61 20 -66 -12 -29 -19 21 -34 29 -45 25 -15 -5 -11 -15 23
-68 22 -34 40 -66 40 -71 0 -20 -98 23 -129 56 -30 32 -47 33 -62 5 -15 -28
-6 -89 19 -138 l21 -39 -77 5 c-146 11 -180 39 -129 106 40 52 76 132 117 256
84 258 133 392 140 384 4 -4 15 -48 24 -98z"/>
<path d="M13277 3186 c-3 -8 -38 -36 -76 -61 -75 -49 -106 -85 -127 -144 l-13
-36 -1 58 c0 42 -4 57 -14 57 -18 0 -26 -22 -26 -75 0 -24 -4 -47 -10 -50 -5
-3 -10 -30 -10 -58 0 -54 26 -112 55 -123 11 -5 6 -22 -27 -87 l-41 -82 -11
55 c-16 79 -37 78 -65 -2 -12 -35 -27 -82 -33 -105 -11 -41 -11 -41 -28 -21
-11 14 -22 18 -30 13 -10 -6 -11 -30 -7 -101 4 -57 3 -94 -3 -94 -16 0 -43
-49 -36 -67 6 -14 12 -11 42 18 l36 34 -27 -60 c-98 -215 -122 -274 -161 -388
-25 -71 -75 -192 -113 -270 -38 -78 -83 -176 -99 -217 -56 -139 -90 -203 -96
-182 -10 30 -55 67 -66 56 -6 -6 -15 -38 -21 -71 -8 -46 -15 -60 -27 -59 -13
1 -16 -7 -14 -34 2 -33 -1 -36 -50 -60 -29 -14 -54 -31 -56 -38 -2 -7 15 -20
40 -31 l43 -18 -33 -7 c-37 -9 -62 -43 -38 -52 8 -3 25 0 38 7 18 9 14 3 -14
-29 -21 -23 -43 -63 -52 -91 -21 -72 -8 -108 58 -165 60 -51 67 -53 90 -30 15
14 17 14 22 0 9 -23 34 -20 34 4 0 21 15 27 25 10 9 -15 52 -12 58 3 3 7 3 24
0 38 -4 20 1 27 28 39 39 18 50 40 19 40 -19 0 -20 4 -14 37 8 49 49 167 167
483 l95 255 38 12 c22 6 54 12 72 12 25 1 32 5 32 20 0 11 -6 21 -12 23 -9 3
-8 12 5 31 20 32 67 157 67 181 0 27 -29 30 -61 7 l-29 -22 15 33 c8 18 31 78
51 133 20 55 74 183 119 285 90 201 161 367 250 585 32 77 69 166 83 199 26
58 26 59 6 75 -16 13 -20 28 -19 75 0 57 -15 85 -28 52z"/>
<path d="M8383 3049 c-46 -13 -41 -30 19 -59 73 -35 71 -46 -7 -52 -87 -7
-157 -43 -237 -121 -81 -79 -115 -157 -157 -353 -38 -179 -91 -507 -91 -561 0
-24 -4 -43 -9 -43 -20 0 -80 251 -81 338 0 22 8 40 25 56 31 29 32 46 1 46
-26 0 -36 16 -36 60 0 38 -25 106 -52 140 -13 15 -48 48 -78 73 -31 25 -67 61
-80 80 -35 51 -58 54 -76 12 -8 -19 -14 -45 -14 -59 l0 -24 -40 21 c-29 16
-42 19 -50 11 -8 -8 2 -21 39 -49 28 -20 51 -38 51 -40 0 -2 -21 3 -47 11 -60
18 -117 18 -153 -1 -37 -19 -38 -40 -2 -59 l27 -15 -31 -1 c-46 0 -134 -29
-134 -43 0 -23 23 -37 62 -37 l39 0 -68 -67 c-123 -122 -193 -311 -180 -485 7
-89 28 -144 78 -204 19 -23 39 -50 45 -60 11 -20 41 -14 50 10 3 8 -13 52 -35
98 -77 155 -73 262 15 436 72 141 104 185 160 218 56 33 90 27 108 -19 14 -34
15 -390 2 -627 -7 -122 7 -468 22 -560 6 -30 15 -95 22 -145 15 -102 61 -209
106 -244 l27 -21 -47 0 c-40 0 -47 -3 -44 -18 3 -14 14 -17 65 -16 l60 1 -38
-37 c-29 -28 -39 -45 -39 -68 0 -32 1 -32 49 -32 37 0 66 9 115 34 l66 35 6
-27 c12 -54 16 -62 35 -72 16 -9 29 -3 81 42 85 72 95 84 129 153 27 53 30 68
27 135 -3 72 -2 75 20 78 13 2 26 10 29 19 9 23 -14 87 -42 113 l-24 23 25 30
c17 20 22 33 15 40 -7 7 -14 7 -23 -1 -10 -8 -12 3 -10 59 3 56 1 70 -12 75
-20 8 -45 -12 -63 -51 -15 -33 -14 -2 6 450 10 232 43 495 72 568 11 29 38
111 59 184 51 174 104 287 158 336 23 20 48 37 55 37 39 0 59 -66 73 -236 l7
-89 -26 30 c-22 25 -27 27 -32 13 -4 -9 -2 -25 4 -37 17 -31 13 -34 -15 -12
-27 21 -69 28 -78 13 -7 -12 12 -140 29 -193 15 -43 46 -77 88 -92 22 -8 20
-34 -13 -257 -47 -307 -60 -459 -61 -705 0 -200 17 -356 56 -488 34 -118 131
-373 159 -422 38 -64 179 -180 240 -196 46 -12 86 -5 86 16 0 16 -52 67 -102
99 -41 26 -66 81 -77 170 -7 57 -6 92 5 139 7 34 30 142 52 240 32 152 40 176
51 163 8 -9 22 -16 32 -16 17 0 19 8 19 70 0 62 2 70 19 70 30 0 51 11 51 26
0 8 -9 14 -20 14 -26 0 -25 2 8 38 54 57 66 154 32 244 -11 29 -20 74 -20 101
0 63 -21 62 -56 -3 -15 -28 -29 -48 -31 -46 -2 1 3 32 12 67 26 110 36 364 25
631 -5 134 -14 261 -20 283 -16 68 -13 80 23 93 41 15 57 47 57 112 0 35 -6
56 -18 68 -13 13 -17 29 -14 60 6 58 -6 112 -23 112 -12 0 -15 -17 -16 -77 -1
-70 -2 -74 -9 -36 -12 59 -34 96 -94 162 -30 32 -59 75 -66 95 -12 38 -45 50
-56 22 -9 -24 -32 -26 -76 -6 -46 21 -121 25 -175 9z m162 -48 c22 -10 51 -30
64 -45 32 -34 51 -33 51 1 l0 27 16 -24 c10 -14 36 -45 60 -70 50 -52 74 -104
73 -157 l0 -38 -19 40 c-11 22 -28 61 -39 88 -16 38 -25 47 -45 47 -14 0 -28
5 -31 10 -10 16 -76 47 -116 54 -22 4 -49 20 -74 46 l-39 40 29 0 c17 0 48 -9
70 -19z m-955 -401 c12 -16 48 -50 81 -76 72 -55 98 -102 106 -192 l6 -67 -33
45 c-18 25 -39 49 -46 53 -7 4 -18 26 -24 47 -11 39 -40 57 -40 24 0 -59 -78
72 -87 145 -7 59 5 66 37 21z m1325 -1245 c16 -51 16 -58 1 -103 -16 -48 -60
-102 -72 -89 -4 3 -1 26 5 51 6 25 11 54 11 65 0 37 -26 22 -40 -21 -7 -24
-14 -47 -15 -53 -2 -5 -4 11 -4 36 -1 52 18 114 51 167 19 31 23 33 33 18 7
-9 20 -41 30 -71z m-880 -455 c46 -90 -28 -262 -138 -320 -25 -12 -29 -12 -38
0 -11 18 -2 67 17 94 12 18 14 18 25 -7 7 -15 16 -27 20 -27 14 0 79 180 79
219 0 37 8 71 16 71 2 0 10 -13 19 -30z"/>
<path d="M5874 3025 c-6 -15 -3 -33 11 -67 6 -14 2 -18 -16 -18 -13 0 -46 -12
-74 -25 -85 -42 -135 -32 -135 26 0 24 -32 26 -54 3 -18 -18 -22 -104 -6 -135
9 -17 7 -19 -17 -19 -15 0 -39 -7 -53 -15 -14 -8 -39 -21 -55 -29 -17 -8 -45
-32 -62 -54 -28 -35 -77 -66 -135 -85 -10 -4 -18 -16 -18 -27 0 -18 4 -20 33
-15 17 3 57 -1 88 -8 35 -9 77 -11 115 -7 32 4 74 3 92 -1 19 -4 76 -10 128
-14 51 -4 98 -12 103 -19 5 -7 2 -87 -10 -211 -10 -110 -18 -209 -19 -220 0
-16 -7 -12 -38 22 -58 66 -142 106 -142 69 0 -8 12 -27 28 -43 16 -18 34 -55
45 -96 9 -36 20 -74 23 -84 3 -10 -11 1 -31 25 -20 23 -41 42 -46 42 -12 0
-11 -37 1 -45 18 -11 0 -25 -34 -25 -18 0 -41 -6 -51 -14 -16 -12 -17 -16 -6
-30 7 -9 19 -16 25 -16 14 0 49 -35 64 -66 6 -11 18 -74 26 -139 20 -147 45
-205 96 -221 l35 -12 12 -109 c6 -60 19 -196 28 -302 9 -110 25 -223 36 -264
35 -126 35 -125 3 -133 -15 -4 -54 -3 -85 2 -87 15 -139 -12 -139 -72 0 -65
12 -77 104 -112 87 -33 114 -52 76 -52 -26 0 -89 -26 -111 -46 -24 -22 -13
-44 22 -44 16 0 77 -17 136 -37 91 -31 121 -37 193 -37 78 0 91 3 148 34 l64
34 25 -33 c29 -36 77 -61 119 -61 21 0 25 3 19 17 -4 10 -14 42 -21 72 -7 30
-18 59 -23 64 -19 19 -12 26 32 37 191 47 331 118 299 152 -13 13 -143 17
-319 8 -53 -2 -86 0 -95 8 -11 9 -14 39 -13 124 1 62 2 188 3 281 l2 167 30 0
c17 0 44 7 61 15 59 31 115 141 107 211 -2 24 -7 29 -28 28 -14 -1 -34 -5 -46
-9 -19 -6 -20 -3 -20 97 1 170 -22 199 -72 89 -13 -31 -27 -50 -29 -43 -7 20
15 126 38 178 28 66 24 105 -8 73 -8 -8 -10 46 -8 202 6 333 27 465 90 561 32
49 61 67 122 77 81 12 133 64 133 131 0 77 -36 93 -147 66 -32 -8 -98 -17
-148 -21 l-90 -6 30 32 c44 49 58 58 82 59 29 0 40 20 19 35 -46 34 -174 28
-232 -11 -43 -30 -44 -30 -44 1 0 14 11 37 25 51 29 29 32 44 7 44 -24 0 -62
-28 -62 -45 0 -25 -19 -27 -49 -6 -36 26 -151 81 -169 81 -7 0 -15 -7 -18 -15z
m37 -135 c20 -6 44 -19 53 -29 16 -18 15 -19 -39 -23 -39 -3 -63 -11 -77 -25
-30 -31 -15 -46 29 -28 39 17 89 20 97 6 9 -14 -72 -44 -117 -44 -24 1 -67 8
-97 17 -29 9 -64 16 -76 16 -16 0 -28 12 -44 46 -12 25 -20 47 -17 50 3 3 19
-4 35 -16 36 -27 82 -22 152 15 52 28 53 28 101 15z m-239 -988 c9 -4 35 -22
57 -41 38 -32 41 -38 40 -85 -1 -52 -8 -44 -23 27 -4 16 -13 27 -23 27 -23 0
-11 -89 23 -157 27 -55 45 -173 27 -173 -13 0 -48 40 -57 65 -4 11 -14 71 -22
135 -11 83 -22 127 -40 159 -13 24 -24 45 -24 47 0 6 23 3 42 -4z m576 -1544
c-8 -13 -37 -34 -64 -48 -73 -37 -168 -34 -301 10 -131 44 -119 52 78 54 137
1 181 -9 77 -17 -86 -8 -85 -37 1 -37 44 0 131 33 131 50 0 8 78 19 89 13 2
-1 -3 -13 -11 -25z"/>
<path d="M14050 2474 c-11 -36 -20 -76 -20 -88 0 -11 -5 -28 -10 -36 -8 -13
-10 -12 -10 3 0 19 -29 24 -31 5 -2 -20 -2 -21 6 -45 5 -19 2 -23 -14 -23 -11
0 -23 -4 -26 -10 -11 -18 25 -69 67 -92 28 -15 44 -31 46 -46 4 -30 30 -28 38
3 6 23 7 23 56 -26 43 -43 91 -70 306 -176 l255 -125 -24 -19 c-13 -10 -67
-35 -119 -56 -52 -21 -98 -39 -102 -41 -5 -2 -8 6 -8 17 0 24 -4 25 -29 11
-12 -6 -32 -5 -57 1 -40 11 -170 -3 -206 -22 -30 -16 -22 -57 15 -79 l32 -20
-38 0 c-30 0 -46 -7 -69 -30 -29 -30 -30 -33 -26 -103 4 -59 12 -88 49 -164
27 -57 50 -93 59 -93 8 0 34 23 58 50 45 52 93 82 151 95 53 11 187 71 266
118 38 24 96 53 129 65 32 12 98 49 148 82 49 33 93 60 98 60 5 0 2 -13 -8
-29 -14 -25 -14 -31 -2 -46 12 -14 24 -16 74 -10 72 8 128 35 158 75 27 37 34
37 42 5 9 -35 36 -33 36 4 0 24 5 30 30 35 36 7 40 35 10 73 -15 19 -17 28 -8
42 6 10 8 26 4 36 -6 17 -7 17 -26 0 -22 -20 -25 -10 -10 30 6 15 7 32 3 38
-5 7 -13 34 -18 61 -7 33 -18 55 -36 68 -28 21 -32 21 -139 12 -84 -7 -250 14
-365 46 -38 11 -106 28 -150 39 -44 11 -92 24 -105 30 -24 9 -24 10 -2 10 25
1 30 19 7 27 -8 3 -27 29 -43 57 -40 70 -74 101 -104 94 -18 -4 -27 1 -43 26
-11 18 -30 33 -43 35 -28 4 -28 -6 3 -48 31 -42 31 -47 3 -26 -31 22 -140 76
-155 76 -16 0 -53 49 -53 71 0 11 -7 19 -15 19 -9 0 -22 -24 -35 -66z"/>
<path d="M1440 2114 c-24 -28 -94 -63 -150 -74 -30 -7 -77 -20 -105 -30 -27
-10 -84 -27 -125 -38 -59 -17 -70 -18 -52 -5 12 8 22 22 22 29 0 20 -33 17
-63 -6 -14 -11 -28 -20 -31 -20 -4 0 -4 22 0 50 9 70 -9 73 -91 15 l-65 -47
-35 31 c-35 31 -75 41 -75 20 0 -6 19 -28 42 -49 l43 -37 -75 4 c-55 4 -99 -1
-163 -16 -107 -25 -135 -26 -159 -4 -29 26 -42 2 -47 -87 -1 -44 -6 -80 -10
-80 -3 0 -12 9 -19 20 -14 23 -42 27 -42 6 0 -8 12 -28 26 -45 l25 -30 -25 -7
c-52 -13 -14 -74 54 -89 17 -4 30 -9 30 -11 0 -3 -10 -23 -22 -44 -17 -29 -20
-42 -11 -51 8 -8 21 2 52 41 l41 52 0 -39 c0 -46 26 -100 60 -124 27 -20 310
-101 350 -101 14 0 52 -8 85 -18 33 -11 101 -30 150 -43 l90 -25 -45 -7 c-49
-9 -93 -45 -84 -69 3 -9 12 -16 19 -16 7 0 64 -16 125 -35 61 -19 123 -35 136
-35 29 0 32 -16 4 -25 -29 -9 -25 -35 6 -35 16 0 37 12 55 31 l29 31 48 -45
c77 -71 127 -74 103 -6 -18 51 -15 60 15 49 37 -14 64 -12 64 5 0 18 8 19 40
2 14 -7 59 -19 100 -25 152 -23 151 -23 171 1 21 25 25 70 7 85 -12 9 -154 84
-383 201 -89 45 -294 131 -398 167 -37 13 -99 34 -138 48 -92 31 -102 41 -48
50 24 4 57 13 73 20 17 8 82 28 145 45 l114 32 34 -33 c19 -18 36 -43 39 -55
4 -13 12 -23 20 -23 15 0 17 10 14 48 -1 17 4 22 24 22 13 0 37 5 53 10 40 15
212 133 213 146 0 20 -24 34 -60 34 -35 0 -36 1 -32 34 5 43 -26 104 -85 167
-49 52 -63 58 -83 33z m-722 -203 c11 -6 8 -10 -10 -14 -12 -3 -68 -15 -123
-27 -145 -31 -188 -44 -193 -58 -2 -8 9 -12 33 -12 31 0 36 -3 30 -17 -4 -10
-12 -30 -17 -45 -12 -33 -17 -34 -51 -7 -33 25 -53 93 -38 126 8 18 19 23 48
24 21 0 72 9 113 19 81 19 187 25 208 11z"/>
</g>
</svg>
